<svg width="62" height="56" viewBox="0 0 62 56" fill="none" xmlns="http://www.w3.org/2000/svg">
<path d="M23.4825 39.9L44.175 28L23.4825 16.1V39.9ZM31 56C26.7633 56 22.7592 55.265 18.9875 53.795C15.2158 52.325 11.9221 50.3183 9.10625 47.775C6.29042 45.2317 4.06875 42.2567 2.44125 38.85C0.81375 35.4433 0 31.8267 0 28C0 24.1267 0.81375 20.4867 2.44125 17.08C4.06875 13.6733 6.29042 10.71 9.10625 8.19C11.9221 5.67 15.2158 3.675 18.9875 2.205C22.7592 0.735 26.7633 0 31 0C35.2883 0 39.3183 0.735 43.09 2.205C46.8617 3.675 50.1425 5.67 52.9325 8.19C55.7225 10.71 57.9312 13.6733 59.5587 17.08C61.1862 20.4867 62 24.1267 62 28C62 31.8267 61.1862 35.4433 59.5587 38.85C57.9312 42.2567 55.7225 45.2317 52.9325 47.775C50.1425 50.3183 46.8617 52.325 43.09 53.795C39.3183 55.265 35.2883 56 31 56Z" fill="#D0BFFF"/>
</svg>
