<svg width="808" height="248" viewBox="0 0 808 248" fill="none" xmlns="http://www.w3.org/2000/svg">
<g filter="url(#filter0_d_3_29)">
<path d="M123.97 0C57.7138 0 4 53.7124 4 119.969C4 186.232 57.7138 239.941 123.97 239.941C190.229 239.941 243.94 186.232 243.94 119.969C243.94 53.7166 190.232 0.005726 123.969 0.005726L123.97 0ZM178.988 173.029C176.833 176.563 172.229 177.671 168.706 175.518C140.534 158.299 105.074 154.41 63.3138 163.949C59.2896 164.872 55.2783 162.349 54.3616 158.326C53.4404 154.302 55.9517 150.291 59.9859 149.374C105.686 138.926 144.886 143.423 176.508 162.746C180.032 164.909 181.149 169.508 178.986 173.032L178.988 173.029ZM193.672 140.367C190.958 144.77 185.202 146.151 180.805 143.447C148.565 123.629 99.4023 117.888 61.2595 129.467C56.3127 130.961 51.088 128.173 49.5867 123.235C48.0968 118.288 50.8861 113.073 55.8242 111.569C99.3938 98.3493 153.557 104.753 190.59 127.51C194.988 130.217 196.378 135.977 193.67 140.369L193.672 140.367ZM194.932 106.352C156.261 83.3858 92.4728 81.2741 55.5562 92.4784C49.6282 94.2763 43.3591 90.9298 41.5626 85.0017C39.7661 79.0708 43.1098 72.806 49.0422 71.0038C91.4199 58.1391 161.868 60.6246 206.384 87.0518C211.717 90.2163 213.466 97.1028 210.305 102.428C207.154 107.76 200.249 109.518 194.934 106.352H194.932ZM330.399 110.753C309.685 105.813 305.997 102.346 305.997 95.0614C305.997 88.1793 312.477 83.5477 322.113 83.5477C331.453 83.5477 340.715 87.0647 350.425 94.3051C350.719 94.5243 351.087 94.6115 351.449 94.5543C351.812 94.4999 352.133 94.3007 352.345 94.0013L362.459 79.7441C362.874 79.1567 362.761 78.3473 362.201 77.8989C350.644 68.6257 337.631 64.1173 322.419 64.1173C300.054 64.1173 284.431 77.5393 284.431 96.7433C284.431 117.337 297.908 124.629 321.196 130.258C341.017 134.823 344.362 138.648 344.362 145.486C344.362 153.063 337.598 157.773 326.711 157.773C314.62 157.773 304.758 153.701 293.726 144.147C293.452 143.91 293.077 143.803 292.73 143.823C292.365 143.853 292.031 144.022 291.799 144.301L280.459 157.798C279.983 158.358 280.043 159.195 280.593 159.679C293.429 171.138 309.216 177.191 326.253 177.191C350.354 177.191 365.927 164.023 365.927 143.641C365.97 126.435 355.67 116.909 330.442 110.771L330.399 110.753ZM420.452 90.3238C410.005 90.3238 401.437 94.4382 394.371 102.869V93.3795C394.371 92.6303 393.764 92.02 393.016 92.02H374.468C373.719 92.02 373.113 92.6303 373.113 93.3795V198.822C373.113 199.571 373.719 200.181 374.468 200.181H393.016C393.764 200.181 394.371 199.571 394.371 198.822V165.538C401.438 173.469 410.008 177.344 420.452 177.344C439.862 177.344 459.512 162.402 459.512 133.839C459.54 105.269 439.885 90.3224 420.473 90.3224L420.452 90.3238ZM437.944 133.839C437.944 148.384 428.984 158.534 416.155 158.534C403.473 158.534 393.906 147.923 393.906 133.839C393.906 119.757 403.473 109.144 416.155 109.144C428.777 109.142 437.945 119.526 437.945 133.838L437.944 133.839ZM509.875 90.3238C484.877 90.3238 465.294 109.572 465.294 134.15C465.294 158.46 484.743 177.506 509.568 177.506C534.654 177.506 554.298 158.322 554.298 133.839C554.298 109.44 534.786 90.3267 509.873 90.3267L509.875 90.3238ZM509.875 158.679C496.579 158.679 486.555 147.996 486.555 133.832C486.555 119.607 496.232 109.286 509.568 109.286C522.95 109.286 533.041 119.968 533.041 134.143C533.041 148.364 523.3 158.679 509.876 158.679H509.875ZM607.678 92.0201H587.268V71.1528C587.268 70.405 586.663 69.7947 585.914 69.7947H567.369C566.618 69.7947 566.01 70.405 566.01 71.1528V92.0201H557.092C556.345 92.0201 555.741 92.6303 555.741 93.3796V109.32C555.741 110.068 556.345 110.68 557.092 110.68H566.01V151.926C566.01 168.594 574.306 177.045 590.667 177.045C597.321 177.045 602.84 175.671 608.042 172.721C608.465 172.485 608.727 172.029 608.727 171.545V156.365C608.727 155.897 608.483 155.454 608.082 155.209C607.678 154.956 607.175 154.943 606.761 155.147C603.188 156.945 599.734 157.775 595.873 157.775C589.923 157.775 587.268 155.073 587.268 149.017V110.687H607.678C608.427 110.687 609.03 110.077 609.03 109.327V93.3883C609.059 92.6391 608.457 92.0288 607.698 92.0288L607.678 92.0201ZM678.792 92.1017V89.5387C678.792 81.9989 681.683 78.6367 688.167 78.6367C692.034 78.6367 695.14 79.4045 698.618 80.5649C699.047 80.6997 699.493 80.6323 699.842 80.3758C700.2 80.1194 700.402 79.7082 700.402 79.2727V63.6431C700.402 63.0456 700.018 62.517 699.442 62.3408C695.767 61.2477 691.065 60.126 684.026 60.126C666.895 60.126 657.839 69.7731 657.839 88.0144V91.9397H648.928C648.181 91.9397 647.567 92.55 647.567 93.2978V109.32C647.567 110.068 648.181 110.68 648.928 110.68H657.839V174.3C657.839 175.049 658.444 175.659 659.192 175.659H677.74C678.489 175.659 679.099 175.049 679.099 174.3V110.684H696.416L722.944 174.288C719.932 180.971 716.971 182.301 712.928 182.301C709.661 182.301 706.22 181.325 702.701 179.4C702.37 179.218 701.978 179.188 701.621 179.298C701.267 179.423 700.969 179.686 700.819 180.03L694.532 193.822C694.233 194.474 694.489 195.239 695.117 195.577C701.68 199.131 707.603 200.648 714.925 200.648C728.621 200.648 736.191 194.269 742.864 177.106L775.042 93.9583C775.203 93.54 775.155 93.0672 774.898 92.6962C774.643 92.328 774.232 92.106 773.782 92.106H754.474C753.895 92.106 753.378 92.4741 753.189 93.0171L733.409 149.516L711.744 92.9799C711.546 92.4541 711.039 92.1059 710.477 92.1059H678.788L678.792 92.1017ZM637.562 92.0201H619.014C618.265 92.0201 617.655 92.6303 617.655 93.3796V174.3C617.655 175.049 618.265 175.659 619.014 175.659H637.562C638.31 175.659 638.922 175.049 638.922 174.3V93.3852C638.922 93.2065 638.887 93.0294 638.819 92.8641C638.751 92.6989 638.65 92.5488 638.524 92.4225C638.397 92.2961 638.247 92.1961 638.082 92.128C637.916 92.0599 637.739 92.0251 637.561 92.0257L637.562 92.0201ZM628.393 55.1751C621.046 55.1751 615.083 61.1232 615.083 68.471C615.083 75.8231 621.047 81.7785 628.394 81.7785C635.739 81.7785 641.695 75.8231 641.695 68.471C641.695 61.1246 635.736 55.1751 628.401 55.1751H628.393ZM790.879 118.037C783.538 118.037 777.826 112.142 777.826 104.984C777.826 97.8249 783.613 91.8624 790.948 91.8624C798.288 91.8624 804 97.7561 804 104.909C804 112.068 798.212 118.037 790.878 118.037H790.879ZM790.95 93.1603C784.265 93.1603 779.206 98.4753 779.206 104.984C779.206 111.489 784.229 116.732 790.883 116.732C797.568 116.732 802.632 111.422 802.632 104.909C802.632 98.4037 797.603 93.1603 790.956 93.1603H790.95ZM793.844 106.251L797.536 111.42H794.423L791.1 106.678H788.242V111.42H785.636V97.7189H791.746C794.929 97.7189 797.022 99.3477 797.022 102.09C797.036 104.336 795.733 105.709 793.856 106.251L793.844 106.251ZM791.638 100.07H788.24V104.403H791.638C793.334 104.403 794.347 103.574 794.347 102.235C794.347 100.825 793.33 100.07 791.64 100.07L791.638 100.07Z" fill="#6F0C9D"/>
</g>
<defs>
<filter id="filter0_d_3_29" x="0" y="0" width="808" height="247.941" filterUnits="userSpaceOnUse" color-interpolation-filters="sRGB">
<feFlood flood-opacity="0" result="BackgroundImageFix"/>
<feColorMatrix in="SourceAlpha" type="matrix" values="0 0 0 0 0 0 0 0 0 0 0 0 0 0 0 0 0 0 127 0" result="hardAlpha"/>
<feOffset dy="4"/>
<feGaussianBlur stdDeviation="2"/>
<feComposite in2="hardAlpha" operator="out"/>
<feColorMatrix type="matrix" values="0 0 0 0 0 0 0 0 0 0 0 0 0 0 0 0 0 0 0.25 0"/>
<feBlend mode="normal" in2="BackgroundImageFix" result="effect1_dropShadow_3_29"/>
<feBlend mode="normal" in="SourceGraphic" in2="effect1_dropShadow_3_29" result="shape"/>
</filter>
</defs>
</svg>
