<svg width="503" height="144" viewBox="0 0 503 144" fill="none" xmlns="http://www.w3.org/2000/svg">
<path d="M75.4312 0C33.7726 0 0 32.0859 0 71.6651C0 111.249 33.7726 143.333 75.4312 143.333C117.092 143.333 150.862 111.249 150.862 71.6651C150.862 32.0885 117.093 0.00342052 75.4302 0.00342052L75.4312 0ZM110.023 103.362C108.669 105.473 105.774 106.134 103.559 104.848C85.8455 94.5625 63.5503 92.239 37.2935 97.9377C34.7633 98.4888 32.2412 96.9818 31.6648 94.5787C31.0856 92.1748 32.6646 89.7786 35.2011 89.231C63.9349 82.9897 88.582 85.676 108.464 97.2188C110.68 98.5111 111.383 101.258 110.022 103.363L110.023 103.362ZM119.256 83.8507C117.55 86.4805 113.931 87.3054 111.166 85.6905C90.8951 73.8517 59.9842 70.4225 36.0019 77.339C32.8916 78.2316 29.6066 76.5662 28.6626 73.6163C27.7258 70.6613 29.4796 67.5462 32.5845 66.6476C59.9789 58.7505 94.0342 62.5758 117.318 76.17C120.084 77.7874 120.958 81.2277 119.255 83.8515L119.256 83.8507ZM120.049 63.5309C95.7339 49.8118 55.6273 48.5504 32.4159 55.2434C28.6887 56.3174 24.747 54.3183 23.6175 50.7771C22.488 47.2342 24.5903 43.4918 28.3203 42.4152C54.9653 34.7303 99.2595 36.2151 127.249 52.0017C130.602 53.8921 131.702 58.0059 129.715 61.1868C127.733 64.3721 123.391 65.4221 120.05 63.5309H120.049ZM205.223 66.1598C192.199 63.2091 189.881 61.1381 189.881 56.7864C189.881 52.6752 193.955 49.9085 200.013 49.9085C205.886 49.9085 211.709 52.0094 217.815 56.3346C217.999 56.4655 218.231 56.5177 218.459 56.4835C218.687 56.451 218.888 56.332 219.022 56.1532L225.381 47.6364C225.642 47.2855 225.571 46.802 225.219 46.5341C217.953 40.9946 209.77 38.3015 200.206 38.3015C186.144 38.3015 176.321 46.3193 176.321 57.7911C176.321 70.093 184.794 74.449 199.437 77.8113C211.9 80.5387 214.003 82.8237 214.003 86.9083C214.003 91.4346 209.75 94.2484 202.905 94.2484C195.303 94.2484 189.102 91.8154 182.165 86.1082C181.993 85.9669 181.757 85.9028 181.539 85.9148C181.309 85.9328 181.099 86.0337 180.954 86.2006L173.823 94.263C173.524 94.5976 173.562 95.0973 173.908 95.3866C181.979 102.232 191.905 105.848 202.617 105.848C217.77 105.848 227.562 97.9814 227.562 85.8062C227.589 75.5282 221.113 69.8372 205.25 66.171L205.223 66.1598ZM261.844 53.9563C255.276 53.9563 249.889 56.4142 245.446 61.4504V55.7817C245.446 55.3341 245.064 54.9696 244.594 54.9696H232.932C232.461 54.9696 232.08 55.3341 232.08 55.7817V118.769C232.08 119.217 232.461 119.581 232.932 119.581H244.594C245.064 119.581 245.446 119.217 245.446 118.769V98.8867C249.889 103.624 255.278 105.939 261.844 105.939C274.048 105.939 286.403 97.0135 286.403 79.9508C286.421 62.8839 274.063 53.9555 261.858 53.9555L261.844 53.9563ZM272.842 79.9508C272.842 88.6396 267.209 94.7029 259.143 94.7029C251.168 94.7029 245.153 88.364 245.153 79.9508C245.153 71.5385 251.168 65.1988 259.143 65.1988C267.078 65.1979 272.843 71.4007 272.843 79.9499L272.842 79.9508ZM318.069 53.9563C302.352 53.9563 290.038 65.4547 290.038 80.1365C290.038 94.6583 302.267 106.036 317.876 106.036C333.649 106.036 346 94.5761 346 79.9508C346 65.3759 333.732 53.958 318.068 53.958L318.069 53.9563ZM318.069 94.7893C309.709 94.7893 303.406 88.4076 303.406 79.9465C303.406 71.4494 309.491 65.2835 317.876 65.2835C326.29 65.2835 332.635 71.665 332.635 80.1322C332.635 88.6276 326.51 94.7893 318.07 94.7893H318.069ZM379.563 54.9696H366.73V42.5042C366.73 42.0575 366.35 41.693 365.878 41.693H354.218C353.746 41.693 353.364 42.0575 353.364 42.5042V54.9696H347.756C347.287 54.9696 346.907 55.3341 346.907 55.7817V65.3041C346.907 65.7508 347.287 66.1162 347.756 66.1162H353.364V90.7551C353.364 100.712 358.58 105.76 368.867 105.76C373.05 105.76 376.521 104.94 379.791 103.178C380.057 103.036 380.222 102.764 380.222 102.475V93.4072C380.222 93.1273 380.069 92.8629 379.817 92.7166C379.563 92.5651 379.246 92.5574 378.986 92.6798C376.74 93.7538 374.568 94.2493 372.14 94.2493C368.399 94.2493 366.73 92.6353 366.73 89.0179V66.1205H379.563C380.034 66.1205 380.413 65.756 380.413 65.3084V55.7869C380.431 55.3394 380.053 54.9748 379.575 54.9748L379.563 54.9696ZM424.276 55.0184V53.4874C424.276 48.9833 426.093 46.9748 430.17 46.9748C432.601 46.9748 434.554 47.4335 436.741 48.1267C437.01 48.2072 437.291 48.167 437.51 48.0138C437.736 47.8605 437.863 47.615 437.863 47.3548V38.0182C437.863 37.6613 437.621 37.3455 437.259 37.2402C434.949 36.5873 431.992 35.9172 427.566 35.9172C416.795 35.9172 411.101 41.6801 411.101 52.5768V54.9216H405.499C405.029 54.9216 404.643 55.2862 404.643 55.7329V65.304C404.643 65.7507 405.029 66.1161 405.499 66.1161H411.101V104.121C411.101 104.568 411.481 104.933 411.952 104.933H423.614C424.085 104.933 424.468 104.568 424.468 104.121V66.1188H435.357L452.036 104.114C450.142 108.106 448.281 108.9 445.739 108.9C443.684 108.9 441.521 108.317 439.308 107.167C439.1 107.059 438.853 107.041 438.629 107.107C438.407 107.181 438.219 107.338 438.125 107.544L434.172 115.782C433.984 116.172 434.145 116.629 434.54 116.831C438.666 118.954 442.391 119.86 446.994 119.86C455.605 119.86 460.365 116.049 464.561 105.797L484.792 56.1274C484.894 55.8775 484.864 55.5951 484.702 55.3735C484.542 55.1536 484.283 55.0209 484.001 55.0209H471.86C471.496 55.0209 471.171 55.2408 471.052 55.5652L458.616 89.3157L444.994 55.543C444.87 55.2289 444.551 55.0209 444.198 55.0209H424.273L424.276 55.0184ZM398.352 54.9696H386.69C386.219 54.9696 385.835 55.3341 385.835 55.7817V104.121C385.835 104.568 386.219 104.933 386.69 104.933H398.352C398.822 104.933 399.207 104.568 399.207 104.121V55.7851C399.207 55.6783 399.185 55.5725 399.142 55.4738C399.099 55.3751 399.036 55.2855 398.957 55.21C398.877 55.1345 398.783 55.0747 398.679 55.0341C398.575 54.9934 398.464 54.9726 398.351 54.973L398.352 54.9696ZM392.587 32.9597C387.967 32.9597 384.219 36.5129 384.219 40.9022C384.219 45.2941 387.968 48.8516 392.587 48.8516C397.206 48.8516 400.951 45.2941 400.951 40.9022C400.951 36.5137 397.204 32.9597 392.592 32.9597H392.587ZM494.75 70.5115C490.135 70.5115 486.543 66.9899 486.543 62.7136C486.543 58.4372 490.181 54.8754 494.793 54.8754C499.409 54.8754 503 58.3961 503 62.6691C503 66.9454 499.361 70.5115 494.749 70.5115H494.75ZM494.795 55.6508C490.591 55.6508 487.411 58.8258 487.411 62.7136C487.411 66.5997 490.569 69.7319 494.753 69.7319C498.956 69.7319 502.14 66.5595 502.14 62.6691C502.14 58.783 498.978 55.6508 494.799 55.6508H494.795ZM496.615 63.4709L498.936 66.5586H496.979L494.889 63.726H493.092V66.5586H491.453V58.3739H495.295C497.297 58.3739 498.613 59.3469 498.613 60.9849C498.622 62.3268 497.802 63.1466 496.622 63.471L496.615 63.4709ZM495.228 59.7783H493.091V62.367H495.228C496.294 62.367 496.931 61.8715 496.931 61.0714C496.931 60.2293 496.291 59.7783 495.228 59.7783L495.228 59.7783Z" fill="white"/>
</svg>
