<svg width="100" height="100" viewBox="0 0 100 100" fill="none" xmlns="http://www.w3.org/2000/svg">
<rect width="100" height="100" fill="#9A8DA9"/>
<rect x="15" y="15" width="70" height="70" rx="15" fill="#D0BFFF"/>
<path d="M73.6653 25.2736C70.3586 25.9848 68.6666 26.3365 65.1188 27.0478C60.7832 27.9192 49.1841 30.2561 44.969 31.1081C43.4319 31.4207 42.0111 31.7216 41.8131 31.7802C40.9175 32.042 40.3578 32.5618 40.0952 33.3785C40.022 33.6013 40.0177 34.4259 40.0047 48.975L39.9961 64.3408L39.6732 64.1923C39.29 64.0164 38.4289 63.7546 37.951 63.6647C35.8844 63.2818 33.5077 63.5162 31.2344 64.3291C29.6543 64.8957 28.2033 65.7437 27.1011 66.7481C26.0807 67.6781 25.4262 68.659 25.1119 69.7337C25.0129 70.0659 25 70.1909 25 70.738C25 71.4571 25.0603 71.7384 25.3531 72.3051C26.0721 73.6963 27.6091 74.5717 29.9427 74.9273C30.6445 75.0328 32.2161 75.0211 33.0427 74.9077C36.1169 74.4779 38.9843 73.1023 40.7367 71.2148C41.4772 70.4215 42.024 69.4562 42.235 68.5887C42.2694 68.448 42.2824 64.8879 42.2781 56.0053C42.2781 47.5056 42.291 43.5234 42.3211 43.3241C42.4718 42.3433 43.0143 41.6945 44.0648 41.2334C44.3275 41.1162 44.6848 40.9794 44.8657 40.9286C45.2833 40.8035 45.1972 40.8192 54.6779 38.9082C59.048 38.0289 64.262 36.9777 66.2727 36.5713L69.9195 35.8327V46.3762V56.9197L69.5406 56.7517C67.5084 55.8333 64.5548 55.7981 61.7605 56.6579C58.4754 57.67 55.8878 59.7178 55.087 61.9414C54.8846 62.5041 54.8329 62.8441 54.8631 63.4772C54.8846 64.0399 54.9406 64.2705 55.1645 64.7707C55.4228 65.3373 56.1332 66.0994 56.7618 66.4745C57.6961 67.0333 58.8715 67.3929 60.1804 67.5179C60.809 67.5765 62.3375 67.5414 62.9445 67.4554C67.1855 66.8536 70.8968 64.4619 71.9259 61.6717C72.2186 60.8706 72.2014 62.0781 72.2014 45.3953C72.2014 35.6412 72.2186 30.1702 72.2445 29.9513C72.3822 28.8727 72.7956 28.0794 73.4974 27.548C73.8031 27.3213 74.3456 27.0829 74.7115 27.0204L75 26.9696V25.9848C75 25.4416 74.9871 24.9961 74.9699 25C74.9483 25 74.3628 25.1251 73.6653 25.2736Z" fill="#EBE9E9"/>
</svg>
